<?xml version="1.0" encoding="utf-8"?>
<!-- Generator: Adobe Illustrator 23.0.1, SVG Export Plug-In . SVG Version: 6.00 Build 0)  -->
<svg version="1.1" id="Layer_1" xmlns="http://www.w3.org/2000/svg" xmlns:xlink="http://www.w3.org/1999/xlink" x="0px" y="0px"
	 viewBox="0 0 288 288" style="enable-background:new 0 0 288 288;" xml:space="preserve">
<style type="text/css">
	.st0{fill:#FFFFFF;}
</style>
<path class="st0" d="M181.6,136.9c0-18.8-14.3-34.3-32.6-36.3c-0.5-0.9-1-1.6-1.5-2.2c1.8-1.1,3.1-3.1,3.1-5.5
	c0-3.5-2.9-6.4-6.4-6.4s-6.4,2.9-6.4,6.4c0,2.3,1.3,4.4,3.1,5.5c-0.5,0.6-1,1.4-1.5,2.4c-4.7,0.7-9,2.3-12.9,4.7
	c-9.1-5.6-16.2-7.7-19-4.9c-2.8,2.8-0.6,10.2,5.2,19.5c-2.6,5-4.1,10.8-4.1,16.8c0,18,13,32.9,30.1,35.9c0.6,1.6,1.2,2.9,1.9,4.1v6
	l-12.3,7.5H140v2.4h-16l-5.1,8.7h51.8l-6-7.8h-8v-5.5l-7.6-4v-5.8c1-1.4,1.9-3.3,2.7-5.6c3.9-0.7,7.5-2,10.9-3.8
	c8.2,4.8,14.5,6.4,17.1,3.8c2.5-2.5,1-8.7-3.6-16.7C179.6,150.5,181.6,143.9,181.6,136.9 M142.5,112.5c3.4,0,6.5,5,8.3,12.4
	c-4-3.9-8-7.4-11.8-10.5C140,113.2,141.2,112.5,142.5,112.5 M137,107.3c-0.4,1.5-0.8,3-1.1,4.7c-1.3-1-2.6-2-3.9-2.9
	C133.6,108.4,135.3,107.8,137,107.3 M149.2,158.6c-1.6-0.9-3.3-2-5-3.2c1.6,1.4,3.1,2.7,4.7,3.9c-1.6,3.4-3.6,5.4-5.8,5.4
	c-3.8,0-7.2-6.1-8.8-14.9c0.5,6.2,1.4,11.8,2.5,16.6c-12.9-3.6-22.3-15.5-22.3-29.5c0-4,0.7-7.7,2.1-11.2c2.4,3.3,5.2,6.8,8.3,10.4
	c-3.6-5.2-6-10.1-6.6-14c1.6-2.8,3.5-5.4,5.9-7.6c2.9,0.1,6.6,1.4,10.7,3.7c-0.4,2.8-0.7,5.8-0.9,9c0.5-3.1,1.3-5.9,2.2-8.2
	c2.5,1.5,5.2,3.4,7.8,5.6c-6.3,0.6-11.2,5.8-11.2,12.2c0,6.8,5.5,12.3,12.3,12.3c2.5,0,4.9-0.8,6.8-2
	C151.5,151.6,150.5,155.6,149.2,158.6 M153.4,166.4c0.2-1,0.4-2,0.6-3.1c0.9,0.7,1.9,1.3,2.8,2C155.7,165.7,154.6,166.1,153.4,166.4
	 M164.3,160.7c-1.9,1.9-5.5,1.9-9.9,0.3c0.8-5.3,1.3-11.4,1.4-18c0.8-1.4,1.4-3,1.6-4.6C164.8,148.1,167.9,157.2,164.3,160.7
	 M172.7,150.5c-4.4-6.4-10.2-13.6-17.2-20.9c-0.6-9-2-16.9-3.8-22.7c13.8,3,24.2,15.3,24.2,30C175.8,141.8,174.7,146.4,172.7,150.5"
	/>
</svg>
