<?xml version="1.0" encoding="utf-8"?>
<!-- Generator: Adobe Illustrator 23.0.1, SVG Export Plug-In . SVG Version: 6.00 Build 0)  -->
<svg version="1.1" id="Layer_1" xmlns="http://www.w3.org/2000/svg" xmlns:xlink="http://www.w3.org/1999/xlink" x="0px" y="0px"
	 viewBox="0 0 288 288" style="enable-background:new 0 0 288 288;" xml:space="preserve">
<style type="text/css">
	.st0{fill:#FFE74A;}
</style>
<g>
	<path class="st0" d="M113,118.6v2.1v6.7V147h8.7v-19.6h21.8v40.4H122v-13.6c-19.1,6.4-21.2,26.6-21.2,26.6
		c4.4-7.6,10.4-11.6,12.3-12.7v8.5h30.5h8.7v-8.8v-40.4v-6.7v-2.1C152.3,118.6,113,118.6,113,118.6z"/>
	<rect x="127.9" y="107.2" class="st0" width="38.3" height="7.9"/>
	<path class="st0" d="M187.3,118.6c0,0-12.1,0.4-21.1,6.6v-17h-7.9v51.9h7.9v-24.7C166.3,134.5,167.5,129,187.3,118.6"/>
</g>
</svg>
