<?xml version="1.0" encoding="utf-8"?>
<!-- Generator: Adobe Illustrator 23.0.1, SVG Export Plug-In . SVG Version: 6.00 Build 0)  -->
<svg version="1.1" id="Layer_1" xmlns="http://www.w3.org/2000/svg" xmlns:xlink="http://www.w3.org/1999/xlink" x="0px" y="0px"
	 viewBox="0 0 288 288" style="enable-background:new 0 0 288 288;" xml:space="preserve">
<style type="text/css">
	.st0{fill:#A579D6;}
</style>
<path class="st0" d="M167,142.7c-6.1-9.6,18.9-39.6,18.9-39.6c-11.1,1.5-35.9,22-39,19.4s4.8-19.4,4.8-19.4
	c-17.1,5.4-39.2,33.7-39.2,33.7l0,0c-6.3,4.9-10.3,12.5-10.3,21.1c0,14.8,12,26.8,26.8,26.8c8.5,0,16-4,21-10.1l0,0
	c30.1-23.7,32-37.9,32-37.9S170.3,148,167,142.7 M129,177.8c-10.9,0-19.8-8.9-19.8-19.8c0-10.9,8.9-19.8,19.8-19.8
	s19.8,8.9,19.8,19.8C148.8,168.9,139.9,177.8,129,177.8 M153.2,164.5L153.2,164.5c0.5-2,0.8-4.1,0.8-6.3c0-14.3-11.3-25.9-25.2-25.9
	c-1.2,0-2.4,0.1-3.6,0.3c5.9-7.2,14.9-15.6,14.9-15.6s-1.2,8.2,3.3,12s26.1-12.5,26.1-12.5c-8.7,11.6-13.4,27-10.3,30.2
	c3.1,3.2,10.6,1.6,10.6,1.6C164.3,156,153.2,164.5,153.2,164.5"/>
</svg>
