<?xml version="1.0" encoding="utf-8"?>
<!-- Generator: Adobe Illustrator 23.0.1, SVG Export Plug-In . SVG Version: 6.00 Build 0)  -->
<svg version="1.1" id="Layer_1" xmlns="http://www.w3.org/2000/svg" xmlns:xlink="http://www.w3.org/1999/xlink" x="0px" y="0px"
	 viewBox="0 0 288 288" style="enable-background:new 0 0 288 288;" xml:space="preserve">
<style type="text/css">
	.st0{fill:#FFFFFF;}
</style>
<path class="st0" d="M185.3,120c0,0-5.3-13-15.5-12.3c-10.2,0.7-0.4,8.1,1.8,7.9c2.1-0.2,3.5,6.1-1.1,8.2
	c-4.6,2.1-21.6,8.1-26.3,7.7c-4.7-0.4-41.3-13-47.6-13v1.4c0,0,5.6,31.9,24.6,36.5c14.1,0,26-16.7,29.9-2c-9.5,16.5-12,25.8-12,25.8
	l21.5-23.8c0,0,13.4,0.9,21.8-10.1C191,135.5,195.9,117.9,185.3,120 M107.9,129.9c0,0,16.2,2.3,28.9,10
	C136.8,139.9,116,156.6,107.9,129.9 M152,139.9c12.7-7.6,28.9-10,28.9-10C172.8,156.6,152,139.9,152,139.9"/>
</svg>
