<?xml version="1.0" encoding="utf-8"?>
<!-- Generator: Adobe Illustrator 23.0.1, SVG Export Plug-In . SVG Version: 6.00 Build 0)  -->
<svg version="1.1" id="Layer_1" xmlns="http://www.w3.org/2000/svg" xmlns:xlink="http://www.w3.org/1999/xlink" x="0px" y="0px"
	 viewBox="0 0 288 288" style="enable-background:new 0 0 288 288;" xml:space="preserve">
<style type="text/css">
	.st0{fill:#91BA5E;}
</style>
<g>
	<path class="st0" d="M151.7,163.1c0,1.7,1.4,3.1,3.1,3.1c1.7,0,3.1-1.4,3.1-3.1v-36c0-1.7-1.4-3.1-3.1-3.1c-1.7,0-3.1,1.4-3.1,3.1
		V163.1z"/>
	<path class="st0" d="M136.1,163.1c0,1.7,1.4,3.1,3.1,3.1c1.7,0,3.1-1.4,3.1-3.1v-36c0-1.7-1.4-3.1-3.1-3.1c-1.7,0-3.1,1.4-3.1,3.1
		V163.1z"/>
	<path class="st0" d="M120.7,163.1c0,1.7,1.4,3.1,3.1,3.1s3.1-1.4,3.1-3.1v-36c0-1.7-1.4-3.1-3.1-3.1s-3.1,1.4-3.1,3.1V163.1z"/>
	<path class="st0" d="M171.8,98.6c-3.5,0-6.5,2.7-6.8,6.2h-49.9c-3.1,0-5.7,2.5-5.7,5.7v2.3c0,3.1,2.5,5.7,5.7,5.7
		c2.6,0,4.7-1.7,5.4-4h44.8c0.3,0.9,0.8,1.6,1.4,2.3v47.8c0,0-12.9,31.3-51.8,7.5c0,0,6.5,17.5,30.3,17.5s30.8-25,30.8-25v-46.9
		c1.6-1.3,2.7-3.2,2.7-5.4v-6.6C178.6,101.7,175.5,98.6,171.8,98.6"/>
</g>
</svg>
