<?xml version="1.0" encoding="utf-8"?>
<!-- Generator: Adobe Illustrator 23.0.1, SVG Export Plug-In . SVG Version: 6.00 Build 0)  -->
<svg version="1.1" id="Layer_1" xmlns="http://www.w3.org/2000/svg" xmlns:xlink="http://www.w3.org/1999/xlink" x="0px" y="0px"
	 viewBox="0 0 288 288" style="enable-background:new 0 0 288 288;" xml:space="preserve">
<style type="text/css">
	.st0{fill:#FFF0DC;}
</style>
<g>
	<path class="st0" d="M174.5,117.2c0,2-1.6,3.6-3.6,3.6s-3.6-1.6-3.6-3.6s1.6-3.6,3.6-3.6S174.5,115.2,174.5,117.2"/>
	<path class="st0" d="M151.6,111.7c0,2-1.6,3.6-3.6,3.6s-3.6-1.6-3.6-3.6s1.6-3.6,3.6-3.6S151.6,109.7,151.6,111.7"/>
	<path class="st0" d="M130.4,119.8c0,2-1.6,3.6-3.6,3.6c-2,0-3.6-1.6-3.6-3.6s1.6-3.6,3.6-3.6C128.8,116.2,130.4,117.9,130.4,119.8"
		/>
	<path class="st0" d="M114.9,149c0,2-1.6,3.6-3.6,3.6s-3.6-1.6-3.6-3.6s1.6-3.6,3.6-3.6C113.2,145.4,114.9,147,114.9,149"/>
	<path class="st0" d="M170.4,144.4c0,2-1.6,3.6-3.6,3.6s-3.6-1.6-3.6-3.6s1.6-3.6,3.6-3.6C168.8,140.8,170.4,142.4,170.4,144.4"/>
	<path class="st0" d="M170.8,152.6c0,2-1.6,3.6-3.6,3.6s-3.6-1.6-3.6-3.6s1.6-3.6,3.6-3.6C169.1,149,170.8,150.6,170.8,152.6"/>
	<path class="st0" d="M163.7,148.9c0,2-1.6,3.6-3.6,3.6s-3.6-1.6-3.6-3.6s1.6-3.6,3.6-3.6C162.1,145.3,163.7,146.9,163.7,148.9"/>
	<path class="st0" d="M150.6,159.8c0,0-4.6-4.4,0-5.1c4.6-0.7-3.9-5.1-3.4-7.9s3.8-4.9,3.8-10.7c0-5.7-9.3-21.3-14.8-21
		c-5.4,0.3-5.7-3.4-12-3.6c0,0,3.1-15.9,25.2,8.2c0,0,6.5-7.9-1.4-22.8c0,0,17.8,9.2,3.9,24.9c0,0,2.2,7.5,2.9,10.3
		c0,0,3.7-5.6,8.8-8.9c0,0-10.2-15.9,5.4-19.8c0,0-7.9,8.4-2,17.9c3.8,5.4,18.2-5.2,18.2-5.2s2.5,14.1-18.5,9.2c0,0-3.9,4.1-3.6,8.5
		c0,0-19.7,11.1-1.8,23.1c0,0-5.4,2.5-2.4,5.3c2.9,2.8,6.4,10.3,15.6,12.6c9.2,2.3,6.9,8.9,6.9,8.9s-8-9.8-18.2,5.4
		c-6.7,6.7-3.4-7.9-5.1-10.8c-1.6-3-7.2-10.8-15.4-12c-8.2-1.1-6.4,3.8-13.6-1.1c-7.2-4.9-13.6-10.2-13.6-10.2s-3.4,3.8-2.8,9
		c0.7,5.2-5.7,7.2-5.1,10.2c0,0-11.5-9.8,8.7-23.8c0,0-2-10.7-13.8-20c0,0,16.4-6.1,17.5,23.4c0,0,2.5,7,14.9,5.7c0,0-7-7.2-9.5-7.9
		c0,0-4.6-1-3.3-20c0,0-20.7-15.6-0.5-26.2c0,0-6.6,14.1,1.5,22.1c0,0,10.7-6.4,18.9-6.9c0,0,0.9,7.8-10.8,8.2c0,0-6.9,8-0.8,17.9
		C136.5,156.7,150.6,159.8,150.6,159.8"/>
</g>
</svg>
