<?xml version="1.0" encoding="utf-8"?>
<!-- Generator: Adobe Illustrator 23.0.1, SVG Export Plug-In . SVG Version: 6.00 Build 0)  -->
<svg version="1.1" id="Layer_1" xmlns="http://www.w3.org/2000/svg" xmlns:xlink="http://www.w3.org/1999/xlink" x="0px" y="0px"
	 viewBox="0 0 288 288" style="enable-background:new 0 0 288 288;" xml:space="preserve">
<style type="text/css">
	.st0{fill:#E2B0AF;}
</style>
<path class="st0" d="M163,112.4c-9,0-18.4-21.7-19-23.1l0,0l0,0l0,0v0.1c-0.6,1.3-10,23.1-19,23.1c-9.3,0-24.6,10.6-24.6,20
	c0,9.5,10.4,24,20.8,35.3c10.1,11,22.2,29.9,22.8,30.9l0,0l0,0l0,0v-0.1c0.6-1,12.7-19.9,22.8-30.9c10.4-11.3,20.8-25.9,20.8-35.3
	C187.6,123,172.3,112.4,163,112.4z M173.3,144L144,173.6l0,0l0,0l0,0l0,0L114.7,144c0,0-8.4-12.5,0.9-18.2
	c9.4-5.6,17.1,5.4,14.5,19.7c0,0,11.9-4.7,11.9-14s-8.4-12.6-8.4-12.6s7.8-6.5,10.3-10l0,0l0,0l0,0l0,0c2.5,3.5,10.3,10,10.3,10
	s-8.4,3.3-8.4,12.6s11.9,14,11.9,14c-2.6-14.3,5.1-25.3,14.5-19.7C181.7,131.5,173.3,144,173.3,144z"/>
</svg>
