<?xml version="1.0" encoding="utf-8"?>
<!-- Generator: Adobe Illustrator 23.0.1, SVG Export Plug-In . SVG Version: 6.00 Build 0)  -->
<svg version="1.1" id="Layer_1" xmlns="http://www.w3.org/2000/svg" xmlns:xlink="http://www.w3.org/1999/xlink" x="0px" y="0px"
	 viewBox="0 0 288 288" style="enable-background:new 0 0 288 288;" xml:space="preserve">
<style type="text/css">
	.st0{fill:#4164CD;}
</style>
<path class="st0" d="M172.9,123.3L172.9,123.3c0,0-6,5.5-9.2,5.4c-3.3-0.1-5.8-3.7-5.8-3.7v-3.6V113v-8.4c0-1.4,0-2.8,0-4.2
	c-0.7-1.4-1.5-2.8-2.5-4.2c-1,1.4-1.8,2.8-2.5,4.2c0.1,1.4,0,2.8,0,4.2v8.4v8.4v3.8c-0.7,1.4-4.1,8-8.9,8.1
	c-5.1,0.1-9.1-7.7-9.6-8.8v-3.8v-8.1v-8.1c0-1.3,0-2.7,0-4c-0.8-1.3-1.5-2.7-2.5-4c-1,1.3-1.8,2.7-2.5,4c0.1,1.3,0,2.7,0,4v8.1v8.1
	v3.9c-5,9.5-14.7-2-14.7-2c0.5,3.2,1.1,6.3,1.8,9.4c1.3,2.8,2.5,5.7,3.7,8.5l7.3,17.1l7.3,17.1l3.7,8.6c1.4,2.1,2.9,4.2,4.4,6.3
	l0.9,2.1l0.4-0.8c1.9-2.5,3.6-5,5.4-7.6l3.7-8.6l7.3-17.1l7.3-17.1c1.2-2.8,2.4-5.7,3.7-8.5c0.7-3.1,1.4-6.2,1.8-9.4
	C173.2,122.9,173.1,123.1,172.9,123.3 M162.1,140.1c-2.6,6.3-14.2,14.3-14.2,14.3v2c2.8,1.4,4.6,4.3,4.6,7.6c0,3.5-2.1,6.5-5.2,7.9
	c0.3,0.9,0.5,1.9,0.5,3c0,3.4-1.9,6.1-4.3,6.1c-2.3,0-4.3-2.7-4.3-6.1c0-1.2,0.2-2.2,0.6-3.1c-2.9-1.4-4.9-4.3-4.9-7.7
	c0-3,1.6-5.7,4-7.2l0.3-3.1c-5-1.5-10.2-8.7-12.3-12c-0.9-1.1-1.5-2.5-1.5-4c0-3.4,2.7-6.1,6.1-6.1c1.9,0,3.5,0.8,4.6,2.1
	c0.4,0.5,0.8,1.1,1,1.7c1.9,1.5,5.6,3.3,6.8,3.3c1.8,0,7.8-5,7.8-5c1.1-1.3,2.8-2.1,4.6-2.1c3.4,0,6.1,2.7,6.1,6.1
	C162.6,138.5,162.4,139.3,162.1,140.1"/>
</svg>
