<?xml version="1.0" encoding="utf-8"?>
<!-- Generator: Adobe Illustrator 23.0.1, SVG Export Plug-In . SVG Version: 6.00 Build 0)  -->
<svg version="1.1" id="Layer_1" xmlns="http://www.w3.org/2000/svg" xmlns:xlink="http://www.w3.org/1999/xlink" x="0px" y="0px"
	 viewBox="0 0 288 288" style="enable-background:new 0 0 288 288;" xml:space="preserve">
<style type="text/css">
	.st0{fill:#D126CC;}
</style>
<path class="st0" d="M150.4,131.6l33,10l-23.9-18.9l14.5-17.2l-23.6,7.7l-6.4-23l0,0l0,0l-6.4,23l-23.6-7.7l14.5,17.2l-23.9,18.9
	l33-10c0.8,12-17,17-17,17c20.6,20.6,23.4,48.9,23.4,49v-0.4l0,0l0,0c0-0.2,2.8-28.4,23.4-49C167.4,148.2,149.6,143.6,150.4,131.6
	 M144,158.7l-7.5-7.5l7.5-7.5l7.5,7.5L144,158.7z"/>
</svg>
