<?xml version="1.0" encoding="utf-8"?>
<!-- Generator: Adobe Illustrator 23.0.1, SVG Export Plug-In . SVG Version: 6.00 Build 0)  -->
<svg version="1.1" id="Layer_1" xmlns="http://www.w3.org/2000/svg" xmlns:xlink="http://www.w3.org/1999/xlink" x="0px" y="0px"
	 viewBox="0 0 288 288" style="enable-background:new 0 0 288 288;" xml:space="preserve">
<style type="text/css">
	.st0{fill:#A8D2E6;}
</style>
<g>
	<path class="st0" d="M181.1,178.7l0.4-0.4l-0.3-0.3c0-0.1,0-0.2,0-0.3c0-2.3-1.8-4.1-4.1-4.1c-0.1,0-0.2,0-0.3,0l-9.7-9.7l3.9-3.9
		c1.3-1.3,1.4-3.3,0.2-4.5s-3.2-1-4.5,0.3l-1.7,1.7h-3.5l-1-7.3c-12-3.5-38.9-37.6-38.9-37.6l-15.2-6.6l6.6,15.2
		c0,0,34.2,26.9,37.6,38.9l6.4,0.9v4.6h0.1l-1.5,1.5c-1.3,1.3-1.4,3.3-0.2,4.5s3.2,1,4.5-0.3l3.5-3.5l9.7,9.7c0,0.1,0,0.2,0,0.3
		c0,2.3,1.8,4.1,4.1,4.1c0.1,0,0.2,0,0.3,0l0.3,0.3l0.5-0.5C179.6,181.2,180.7,180.1,181.1,178.7"/>
	<path class="st0" d="M106.9,178.7l-0.4-0.4l0.3-0.3c0-0.1,0-0.2,0-0.3c0-2.3,1.8-4.1,4.1-4.1c0.1,0,0.2,0,0.3,0l9.7-9.7L117,160
		c-1.3-1.3-1.4-3.3-0.2-4.5c1.2-1.2,3.2-1,4.5,0.3l1.7,1.7h3.5l1-7.3c12-3.5,38.9-37.6,38.9-37.6l15.2-6.6l-6.6,15.2
		c0,0-34.2,26.9-37.6,38.9L131,161v4.6h-0.1l1.5,1.5c1.3,1.3,1.4,3.3,0.2,4.5s-3.2,1-4.5-0.3l-3.5-3.5l-9.7,9.7c0,0.1,0,0.2,0,0.3
		c0,2.3-1.8,4.1-4.1,4.1c-0.1,0-0.2,0-0.3,0l-0.3,0.3l-0.5-0.5C108.4,181.2,107.3,180.1,106.9,178.7"/>
</g>
</svg>
