<?xml version="1.0" encoding="utf-8"?>
<!-- Generator: Adobe Illustrator 23.0.1, SVG Export Plug-In . SVG Version: 6.00 Build 0)  -->
<svg version="1.1" id="Layer_1" xmlns="http://www.w3.org/2000/svg" xmlns:xlink="http://www.w3.org/1999/xlink" x="0px" y="0px"
	 viewBox="0 0 288 288" style="enable-background:new 0 0 288 288;" xml:space="preserve">
<style type="text/css">
	.st0{fill:#796D30;}
</style>
<path class="st0" d="M181.3,109.5c0-0.1,0-0.2-0.1-0.2c-0.1-0.1-0.1-0.1-0.2-0.1c-0.2,0-0.4,0.1-0.7,0.2l-18.3,10
	c-0.4,0.2-0.9,0.6-1.5,1c-4.4-3.2-9.6-5.4-15.3-6.1c0-0.1-0.1-0.1-0.1-0.2l-6.5-7.9c-0.3-0.4-0.7-0.6-1.1-0.6
	c-0.5,0-0.9,0.3-1.2,0.9l-4.6,8.7c-14.4,3.9-25,17.1-25,32.7c0,1.8,0.1,3.6,0.4,5.3v0.1h11.4v-0.1c-0.4-1.7-0.6-3.5-0.6-5.3
	c0-6.3,2.6-12,6.7-16.1c4.1-4.1,9.8-6.7,16.1-6.7c4.3,0,8.3,1.2,11.7,3.2l-30.2,29.8c-0.4,0.3-0.8,0.8-1.2,1.3l-0.1,0.1
	c-0.4,0.5-0.7,1-1,1.4l-5.2,8.6l0.1,0.1l-0.1,0.1l-0.1-0.1l-7,11.6c-0.2,0.3-0.3,0.5-0.3,0.7c0,0.1,0,0.2,0.1,0.2
	c0.1,0.1,0.2,0.1,0.3,0.1c0.2,0,0.4-0.1,0.7-0.2l10.8-5.8c0.4-0.2,1-0.6,1.5-0.9c5.6,4.1,12.5,6.5,19.9,6.5c6.4,0,12.3-1.8,17.4-4.8
	l8.8,4c0.3,0.1,0.5,0.2,0.8,0.2c0.4,0,0.7-0.1,0.9-0.4c0.2-0.3,0.4-0.6,0.4-1.1v-13c3.6-5.4,5.7-11.8,5.7-18.8c0-0.7,0-1.4-0.1-2.1
	v-0.1h-11.2v0.1c0.1,0.7,0.1,1.4,0.1,2.1c0,6.3-2.6,12-6.7,16.1c-4.1,4.1-9.8,6.7-16.1,6.7c-4.2,0-8.2-1.1-11.6-3.2l30.4-29.3
	c0.3-0.3,0.8-0.8,1.3-1.2l0.1-0.1c0.5-0.5,0.9-0.9,1.3-1.2l5.5-5.3c0.4-0.3,0.8-0.8,1.2-1.3l0.1-0.1c0.4-0.5,0.8-1,1-1.4l11.1-17.4
	C181.2,109.9,181.3,109.7,181.3,109.5z M107.2,153.2L107.2,153.2L107.2,153.2L107.2,153.2L107.2,153.2z"/>
</svg>
