<?xml version="1.0" encoding="utf-8"?>
<!-- Generator: Adobe Illustrator 23.0.1, SVG Export Plug-In . SVG Version: 6.00 Build 0)  -->
<svg version="1.1" id="Layer_1" xmlns="http://www.w3.org/2000/svg" xmlns:xlink="http://www.w3.org/1999/xlink" x="0px" y="0px"
	 viewBox="0 0 288 288" style="enable-background:new 0 0 288 288;" xml:space="preserve">
<style type="text/css">
	.st0{fill:#2599BE;}
</style>
<g>
	<g>
		<path class="st0" d="M177.8,127.6c-0.4-0.7-1-1-1.8-1h-24.1l23.9-30.6c0.4-0.5,0.4-1.2,0-1.7c-0.4-0.5-1-0.8-1.8-0.8h-32.6
			c-0.8,0-1.4,0.3-1.8,0.8L108.8,144c-0.4,0.5-0.4,1.2,0,1.7c0.4,0.5,1.2,0.8,1.8,0.8h21l-22.9,44.1c-0.4,0.7,0,1.5,0.8,2
			c0.2,0.2,0.6,0.2,1,0.2c0.6,0,1.2-0.2,1.6-0.5l65.3-62.8C178,129,178.2,128.3,177.8,127.6z M121.1,177.3l16-31.9
			c0.2-0.5,0.1-2.1-0.3-2.6c-0.4-0.3-1.6-0.7-2.2-0.7l-17.7-0.1l26.3-42.7h23.4l-22,28c-0.4,0.5-0.2,2.4,0.2,2.9
			c0.4,0.5,2.2,0.6,3.1,0.6l20.9,0L121.1,177.3z"/>
	</g>
</g>
</svg>
