<?xml version="1.0" encoding="utf-8"?>
<!-- Generator: Adobe Illustrator 23.0.1, SVG Export Plug-In . SVG Version: 6.00 Build 0)  -->
<svg version="1.1" id="Layer_1" xmlns="http://www.w3.org/2000/svg" xmlns:xlink="http://www.w3.org/1999/xlink" x="0px" y="0px"
	 viewBox="0 0 288 288" style="enable-background:new 0 0 288 288;" xml:space="preserve">
<style type="text/css">
	.st0{fill:#6EE1D6;}
</style>
<g>
	<path class="st0" d="M161.1,187.5L161.1,187.5c-1.2,0-2.2-0.5-2.8-1.4l-12.8-17.5c-1.1-1.6-0.8-3.8,0.8-4.9
		c1.6-1.1,3.8-0.8,4.9,0.8l10.1,13.8l5.5-7l-10.4-13.9c-0.6-0.8-0.8-1.8-0.6-2.8s0.8-1.8,1.7-2.3l11.1-6.5L115.4,107
		c-1.6-1.1-1.9-3.3-0.8-4.9s3.3-1.9,4.9-0.8l57.6,41.9c1,0.7,1.5,1.8,1.4,3s-0.7,2.2-1.7,2.8l-12.4,7.3l9.6,12.9c1,1.3,0.9,3,0,4.3
		l-10,12.8C163.2,187,162.2,187.5,161.1,187.5"/>
	<path class="st0" d="M134.2,158.7c-0.3,0-0.4,0-0.4,0c-1-0.1-1.8-0.9-1.8-2V144c0-1.1,0.9-2,2-2s2,0.9,2,2v10.6
		c2.9-0.4,8.5-2.4,10.3-10.8l-35.7-25.3c-0.9-0.6-1.1-1.9-0.5-2.8s1.9-1.1,2.8-0.5l36.7,26c0.6,0.4,0.9,1.2,0.8,1.9
		C148,157.9,136.5,158.7,134.2,158.7"/>
</g>
</svg>
