<?xml version="1.0" encoding="utf-8"?>
<!-- Generator: Adobe Illustrator 23.0.1, SVG Export Plug-In . SVG Version: 6.00 Build 0)  -->
<svg version="1.1" id="Layer_1" xmlns="http://www.w3.org/2000/svg" xmlns:xlink="http://www.w3.org/1999/xlink" x="0px" y="0px"
	 viewBox="0 0 288 288" style="enable-background:new 0 0 288 288;" xml:space="preserve">
<style type="text/css">
	.st0{fill:#D69C00;}
</style>
<g>
	<path class="st0" d="M97.9,144.4c1.5-3.1,3.1-5.9,4.8-8.7c2.5-1.9,4.8-3.9,7.2-5.8l14.3-11.7l14.3-11.7l7.2-5.8
		c1.6-0.5,3.1-1.1,4.7-1.6l2.4-0.7c0.8-0.2,1.6-0.5,2.5-0.6c-0.4,0.8-0.7,1.6-1.1,2.3l-1.2,2.2c-0.8,1.5-1.6,2.8-2.6,4.2l-7.1,5.8
		L129,123.8l-14.3,11.7c-2.4,2-4.8,3.8-7.1,5.8C104.3,142.5,101.2,143.5,97.9,144.4"/>
	<path class="st0" d="M116.4,166.9c1.5-3.1,3.1-5.9,4.8-8.7c2.5-1.9,4.8-3.9,7.2-5.8l14.3-11.7l14.3-11.7l7.1-5.8
		c1.6-0.5,3.1-1.1,4.7-1.6l2.4-0.7c0.8-0.2,1.6-0.5,2.5-0.6c-0.4,0.8-0.7,1.6-1.1,2.3l-1.2,2.2c-0.8,1.5-1.6,2.8-2.6,4.2l-7.1,5.8
		l-14.3,11.7l-14.3,11.7c-2.4,2-4.8,3.8-7.1,5.8C122.9,165.1,119.8,166.1,116.4,166.9"/>
	<path class="st0" d="M133.5,191.2c1.5-3.1,3.1-5.9,4.8-8.7c2.5-1.9,4.8-3.9,7.2-5.8l14.3-11.7l14.3-11.7l7.2-5.8
		c1.6-0.5,3.1-1.1,4.7-1.6l2.4-0.7c0.8-0.2,1.6-0.5,2.5-0.6c-0.4,0.8-0.7,1.6-1.1,2.3l-1.2,2.2c-0.8,1.5-1.6,2.8-2.6,4.2L179,159
		l-14.5,11.6l-14.3,11.7c-2.4,2-4.8,3.8-7.1,5.8C139.9,189.4,136.8,190.4,133.5,191.2"/>
</g>
</svg>
