<?xml version="1.0" encoding="utf-8"?>
<!-- Generator: Adobe Illustrator 23.0.1, SVG Export Plug-In . SVG Version: 6.00 Build 0)  -->
<svg version="1.1" id="Layer_1" xmlns="http://www.w3.org/2000/svg" xmlns:xlink="http://www.w3.org/1999/xlink" x="0px" y="0px"
	 viewBox="0 0 288 288" style="enable-background:new 0 0 288 288;" xml:space="preserve">
<style type="text/css">
	.st0{fill:#CF2621;}
</style>
<g>
	<path class="st0" d="M129,113.3l4.4-2.6l4.7,6.8l-5.3,3.9l3.6-2c0,0,18.5,28.2,41,51.4c0,0-2.8,8.5-5.3,10.9s-3.3-5-5.2-7.8
		s-36-50.4-36-50.4s-7.4,4.9-7,18.2c0,0-16.8-8.3-20.2-30.4c0,0,5.9,2.5,14,14.8c0,0-4.6-8-7.2-10.6c0,0,7.4,1.4,14.2-0.3
		c0,0-3.4-5-2.9-5.5s5.3-4.4,5.9-3.8C128.3,106.5,134,110.9,129,113.3"/>
	<path class="st0" d="M159,113.3l-4.4-2.6l-4.7,6.8l5.3,3.9l-3.6-2c0,0-18.5,28.2-41,51.4c0,0,2.8,8.5,5.3,10.9s3.3-5,5.2-7.8
		c1.9-2.8,36-50.4,36-50.4s7.4,4.9,7,18.2c0,0,16.8-8.3,20.2-30.4c0,0-5.9,2.5-14,14.8c0,0,4.6-8,7.2-10.6c0,0-7.4,1.4-14.2-0.3
		c0,0,3.4-5,2.9-5.5s-5.3-4.4-5.9-3.8C159.6,106.5,154,110.9,159,113.3"/>
</g>
</svg>
