<?xml version="1.0" encoding="utf-8"?>
<!-- Generator: Adobe Illustrator 23.0.1, SVG Export Plug-In . SVG Version: 6.00 Build 0)  -->
<svg version="1.1" id="Layer_1" xmlns="http://www.w3.org/2000/svg" xmlns:xlink="http://www.w3.org/1999/xlink" x="0px" y="0px"
	 viewBox="0 0 288 288" style="enable-background:new 0 0 288 288;" xml:space="preserve">
<style type="text/css">
	.st0{fill:#AF1964;}
</style>
<path class="st0" d="M152.2,169c5.5-3.6,9.4-9.4,10.5-16.2l0,0l0,0c0.2-1.2,0.3-2.4,0.3-3.6c0-0.1,0-0.2,0-0.3
	c2-44.8-38.5-42.7-38.5-42.7c21.5,9,25.3,21.7,25.3,21.7l0,0c-3.2-1.6-6.8-2.5-10.6-2.5c-1.4,0-2.7,0.1-4,0.3
	c0.1-0.2-44.5,7.9-25.8,56.2c0,0-3.8-20.7,6-32.6c0.1,10.6,7.1,19.5,16.7,22.5l0,0c38.2,13.2,51.1-15.4,51.1-15.4
	C171.2,168.9,152.2,169,152.2,169 M122.4,149.1c0-9.2,7.5-16.8,16.8-16.8c9.2,0,16.8,7.5,16.8,16.8s-7.5,16.8-16.8,16.8
	C129.9,165.9,122.4,158.4,122.4,149.1"/>
</svg>
