<?xml version="1.0" encoding="utf-8"?>
<!-- Generator: Adobe Illustrator 23.0.1, SVG Export Plug-In . SVG Version: 6.00 Build 0)  -->
<svg version="1.1" id="Layer_1" xmlns="http://www.w3.org/2000/svg" xmlns:xlink="http://www.w3.org/1999/xlink" x="0px" y="0px"
	 viewBox="0 0 288 288" style="enable-background:new 0 0 288 288;" xml:space="preserve">
<style type="text/css">
	.st0{fill:#A8D2E6;}
</style>
<path class="st0" d="M173.5,102.3l-4.1,2.9v4.8h-20.7v-5.8l-4.8-3.3l-4.6,3.3v5.8h-20.7v-4.8l-4.2-2.9l-4.1,2.9v4.8v2.3v1.9v2v31.5
	c0,0,0.8,22.3,33.8,39.3c30.9-14.4,33.8-37.8,33.8-37.8v-33v-2v-1.9V110v-4.8L173.5,102.3z M118.1,144.7v-28.4h21.2v59.8
	C118.5,162,118.1,144.7,118.1,144.7 M169.4,146c0,0-1.8,17.8-20.5,30v-59.6h16.6h3.9V146z"/>
</svg>
