<?xml version="1.0" encoding="utf-8"?>
<!-- Generator: Adobe Illustrator 23.0.1, SVG Export Plug-In . SVG Version: 6.00 Build 0)  -->
<svg version="1.1" id="Layer_1" xmlns="http://www.w3.org/2000/svg" xmlns:xlink="http://www.w3.org/1999/xlink" x="0px" y="0px"
	 viewBox="0 0 288 288" style="enable-background:new 0 0 288 288;" xml:space="preserve">
<style type="text/css">
	.st0{fill:#D69C00;}
</style>
<path class="st0" d="M140,104.6c0,0-14.4-18.7-21.9-13.9l-6.7,6.7h-7.5v8.6l-5.3,5.3v10c0,0-9.6,6.4-3.2,13.2
	c6.3,6.8,20.7,16.7,34.2-15.8l-5.3-1.1l10.9,0.7l-4,0.5c0,0-9.4,23.4-21.4,23.2c0,0,4.1,12.9,21.5,12.5l-0.6,12.6l7.9,1.4l16.4,16.4
	l-0.8,3.9l9.3,9.3l11.2-11.2l-1-7.2l8.3-0.2l13-13l-3.4-3.4l-10.4,8.2l9.6-9l-6.2-6.2L169.3,174l14.5-18.6h-5l-9.7-9.7h-13.6
	l-0.1,12.8l-11.8-0.5l11.2-0.3l-0.1-12.9l13.6,0.1l-4.1-11.1l-9.3-1.2l-9.2,9.1l-0.2,6.7l-7.6,0.3l6.8-1.2l0.3-6.4l9.1-9.1
	c0,0-2.4-10.5-4.2-14.8c-1.9-4.3-9.1-11.7-9.1-11.7l-20.3,1.2l-9.8,11.3l9.2-12L140,104.6z M134.9,139.3c0,0-12-2.8-8.9-10.6
	C126,128.6,130.1,137,134.9,139.3"/>
</svg>
