<?xml version="1.0" encoding="utf-8"?>
<!-- Generator: Adobe Illustrator 23.0.1, SVG Export Plug-In . SVG Version: 6.00 Build 0)  -->
<svg version="1.1" id="Layer_1" xmlns="http://www.w3.org/2000/svg" xmlns:xlink="http://www.w3.org/1999/xlink" x="0px" y="0px"
	 viewBox="0 0 288 288" style="enable-background:new 0 0 288 288;" xml:space="preserve">
<style type="text/css">
	.st0{fill:#E87B7B;}
</style>
<g>
	<path class="st0" d="M167.7,168c0,4.8-3.9,8.7-8.7,8.7s-8.7-3.9-8.7-8.7s3.9-8.7,8.7-8.7C163.7,159.3,167.7,163.2,167.7,168"/>
	<path class="st0" d="M174.8,152.4c-4.1-4-9.8-6.5-16-6.5c-12.6,0-22.9,10.3-22.9,22.9c0,12.6,10.2,22.9,22.9,22.9
		c1.1,0,2.2-0.1,3.3-0.2c1-0.1,1.9-0.3,2.8-0.6l-0.8-4.4c-0.9,0.2-1.9,0.3-2.8,0.3c-0.2,0-0.3,0-0.5,0c-9.7,0-17.6-8.3-17.6-18.5
		s7.9-18.5,17.6-18.5c4.4,0,8.5,1.7,11.6,4.5c1,1,2,2,2.8,3.2l2.5-1.7C176.8,154.6,175.9,153.4,174.8,152.4"/>
	<polygon class="st0" points="154.1,149.3 155.3,146.1 158.9,96.4 164.1,146.5 	"/>
	<path class="st0" d="M138.5,150.5l-2.3-1.6l-13.8-10l9.2,14c-1.8,3-2.8,6-3.3,8.8h-18.1l17.9,6.2c0.3,2.9,1.1,5.5,2.1,7.8
		l-10.8,9.4l12.8-5.5c2.1,3.5,4.2,5.5,4.2,5.5C125.1,163.8,138.5,150.5,138.5,150.5"/>
</g>
</svg>
