<?xml version="1.0" encoding="utf-8"?>
<!-- Generator: Adobe Illustrator 23.0.1, SVG Export Plug-In . SVG Version: 6.00 Build 0)  -->
<svg version="1.1" id="Layer_1" xmlns="http://www.w3.org/2000/svg" xmlns:xlink="http://www.w3.org/1999/xlink" x="0px" y="0px"
	 viewBox="0 0 288 288" style="enable-background:new 0 0 288 288;" xml:space="preserve">
<style type="text/css">
	.st0{fill:#AF1964;}
</style>
<g>
	<path class="st0" d="M173.2,158.1c-0.6-0.3-1.5,0-2.4,0.8c-0.7,0.6-1.5,1.6-2.1,2.8c-0.5,0.9-0.8,1.8-1,2.6
		c-0.3,1.5-0.1,2.8,0.6,3.1c1.2,0.6,3.2-1,4.5-3.6C174.2,161.3,174.3,158.7,173.2,158.1"/>
	<path class="st0" d="M109.3,158.1c-0.6-0.3-1.5,0-2.4,0.8c-0.7,0.6-1.5,1.6-2.1,2.8c-0.5,0.9-0.8,1.8-1,2.6
		c-0.3,1.5-0.1,2.8,0.6,3.1c1.2,0.6,3.2-1,4.5-3.6C110.3,161.3,110.5,158.7,109.3,158.1"/>
	<path class="st0" d="M148.4,145.2c-3.9-0.5-15.1-2.5-23.1-9c-9.8-7.9-27.2-6.9-27.4-6.9l0,0l0,0l0,0l0,0
		c0.1,0.1,11.6,14.2,23.7,16.2c8.9,1.5,17.3,7.5,21,10.6c0.6-1.7,1.5-3.5,2.5-5.5C146.2,148.6,147.3,146.7,148.4,145.2"/>
	<path class="st0" d="M151.6,149.6c1.8-4.2,2.5-7.5,1.6-7.9c-0.7-0.4-2.4,1.2-4.4,4c-1.1,1.5-2.2,3.4-3.3,5.5
		c-1,1.9-1.9,3.8-2.5,5.5c-1.3,3.3-1.7,5.8-0.9,6.2c1,0.5,3.9-2.8,6.7-7.8l18.6,8.9c0.2-0.8,0.5-1.7,1-2.6c0.6-1.2,1.4-2.1,2.1-2.8
		L151.6,149.6z"/>
	<path class="st0" d="M129.3,180.4c3.9,0.5,15.1,2.5,23.1,9c9.8,7.9,27.2,6.9,27.4,6.9l0,0l0,0l0,0c-0.1-0.1-11.6-14.2-23.7-16.2
		c-8.9-1.5-17.3-7.5-21-10.6c-0.6,1.7-1.5,3.5-2.5,5.5C131.5,177,130.4,178.8,129.3,180.4"/>
	<path class="st0" d="M126.1,176c-1.8,4.2-2.5,7.5-1.6,7.9c0.7,0.4,2.4-1.2,4.4-4c1.1-1.5,2.2-3.4,3.3-5.5c1-1.9,1.9-3.8,2.5-5.5
		c1.3-3.3,1.7-5.8,0.9-6.2c-1-0.5-3.9,2.8-6.7,7.8l-18.6-8.9c-0.2,0.8-0.5,1.7-1,2.6c-0.6,1.2-1.4,2.1-2.1,2.8L126.1,176z"/>
</g>
</svg>
