<?xml version="1.0" encoding="utf-8"?>
<!-- Generator: Adobe Illustrator 23.0.1, SVG Export Plug-In . SVG Version: 6.00 Build 0)  -->
<svg version="1.1" id="Layer_1" xmlns="http://www.w3.org/2000/svg" xmlns:xlink="http://www.w3.org/1999/xlink" x="0px" y="0px"
	 viewBox="0 0 288 288" style="enable-background:new 0 0 288 288;" xml:space="preserve">
<style type="text/css">
	.st0{fill:#E46D04;}
</style>
<path class="st0" d="M182.1,118.3l-2.1,2c4.1,7.5,4.5,23.2,0.5,18.2s-9.5-10.5-17.7-10.7c-6.6-0.2-13.2,3.5-15.5,4.8l-5.4-18.5
	l-5.2,21.9c-5.1,3.1-10.9,3-16.6-0.9c-7.1-5-2.7-19.6,18.1-26.6s30.8,0.7,30.8,0.7l2.2-2.2c-7.7-5.7-17.1-9.1-27.4-9.1
	c-25.4,0-46,20.6-46,46c0,10.3,3.4,19.9,9.2,27.5l2-2c-4.7-8-4.3-19.5-2.4-26.5s2-4.4,8.7,0.9c5,4,14.3,4.2,18.5,4l-4.6,19.1h28.1
	l-6.8-23.4c12-10.4,19.3-2.8,22.2-0.5c2.9,2.4,4.7,22.2-11.9,31.6c-24.4,13.8-40.8,5.5-40.8,5.5l-1.6,1.9c7.3,4.9,16.1,7.7,25.5,7.7
	c25.4,0,46-20.6,46-46C190,134.5,187.1,125.6,182.1,118.3 M136.6,158.9l2.7-11.7l2.9-12.9l3.1,11.5l3.6,13.1L136.6,158.9
	L136.6,158.9z"/>
</svg>
