<?xml version="1.0" encoding="utf-8"?>
<!-- Generator: Adobe Illustrator 23.0.1, SVG Export Plug-In . SVG Version: 6.00 Build 0)  -->
<svg version="1.1" id="Layer_1" xmlns="http://www.w3.org/2000/svg" xmlns:xlink="http://www.w3.org/1999/xlink" x="0px" y="0px"
	 viewBox="0 0 288 288" style="enable-background:new 0 0 288 288;" xml:space="preserve">
<style type="text/css">
	.st0{fill:#2D9B78;}
</style>
<path class="st0" d="M178.6,123.3c-0.1-1.8-1.7-3.2-3.5-3c-1.8,0.1-3.2,1.7-3,3.5c0.5,6.5,0.3,12.4-0.5,17.7
	c-19.2-1.7-59.1-36-59.1-36c15.3,41.4,16,64.3,15.8,70.4c-8.6,0.2-15-1.1-15.2-1.1c-1.8-0.4-3.5,0.8-3.9,2.6s0.8,3.5,2.6,3.9
	c0.6,0.1,6.6,1.4,14.9,1.4c11,0,25.8-2.2,37-12C175.2,160.5,180.2,144.6,178.6,123.3 M159.3,165.6c-6.9,6.1-15.7,8.7-23.8,9.8
	c-0.6-23-9.6-51.8-9.6-51.8c29.7,23,43.8,25.5,43.8,25.5l0,0C167.6,155.8,164.2,161.3,159.3,165.6"/>
</svg>
