<?xml version="1.0" encoding="utf-8"?>
<!-- Generator: Adobe Illustrator 23.0.1, SVG Export Plug-In . SVG Version: 6.00 Build 0)  -->
<svg version="1.1" id="Layer_1" xmlns="http://www.w3.org/2000/svg" xmlns:xlink="http://www.w3.org/1999/xlink" x="0px" y="0px"
	 viewBox="0 0 288 288" style="enable-background:new 0 0 288 288;" xml:space="preserve">
<style type="text/css">
	.st0{fill:#A579D6;}
</style>
<g>
	<path class="st0" d="M175.1,173.2c-8.6,6.8,7.9-16.1,4.3-19.5c-3.7-3.4-21.3,5.6-22.9,6c-1.6,0.3-12.2-0.1-12.2-0.1
		s-10.6,0.4-12.2,0.1c-1.6-0.3-19.2-9.4-22.9-6c-3.7,3.4,12.9,26.3,4.3,19.5c-5.6-10.1-10.6-4.3-9.4-2.6c1.3,1.7,4.9-2.9,5.7,2.9
		c0.8,5.8,8.6,6.2,8.6,6.2c-0.2,2.8,14,17.5,16.6,19.3c2.6,1.8,9.3,0,9.3,0s6.8,1.8,9.3,0c2.6-1.8,16.7-16.5,16.6-19.3
		c0,0,7.8-0.4,8.6-6.2s4.4-1.2,5.7-2.9C185.7,168.9,180.6,163.1,175.1,173.2 M122.3,171c0,0-8.8-6.9-7.5-12.1
		c1.3-5.2,7.5,4.6,7.5,4.6S116.6,162.4,122.3,171 M166.2,171c5.7-8.6,0-7.5,0-7.5s6.2-9.8,7.5-4.6C174.9,164,166.2,171,166.2,171"/>
	<path class="st0" d="M134.8,154.2c0,0-20.9-3.7-22.4-7.3c0,0-13.6,1.3-15.7-2.8c-2.1-4.2-3.5-10.3-6.5-11.3c0,0,8.2,2,12.1,4.6
		c0,0-5.4-7-5.2-9.5c0.2-2.5,7.7-9.3-0.7-15.8c0,0,11.5,2.6,14.4,19.3C113.6,148.2,134.8,154.2,134.8,154.2"/>
	<path class="st0" d="M138.4,156.7c0,0-8.5-9.5-13.5-11.8s-9.1-7.1-7.8-11.7c1.2-4.6-5.3-14.2-5.3-14.2s7.8,3,10.3,7
		c0,0-2.5-15.9-10.3-22.2c0,0,9.6,2.3,11.4,5c0,0,3.4-15.1,18.3-20.6c0,0-10.8,14.1-9.4,21.9c1.4,7.8,13.9,15.6,14.6,18.9
		c0.7,3.3-7.3,12.1-8.7,12c-1.4-0.2-7.5-6.5-6.6-11.1c0,0-1.1,9.5,2.5,13.9C137.3,148.2,138.4,156.7,138.4,156.7"/>
	<path class="st0" d="M144.9,154.2c0,0-0.2-3.7,2.8-3.8c3-0.2,6.3-4.2,4.7-7.5s-2.7-10,0.4-13.8c0,0-9.9,7.3-6.5,15
		c0,0-9.5,3-7.7,6.6c1.7,3.7,6.3,4.5,6.3,4.5"/>
	<path class="st0" d="M167.7,127.5c0,0-9.1,8.8-8.6,13.8c0,0-6,10-6.3,11.6c0,0,9.4-11.8,26.5-16.5c0,0-4.2-2.2-7.3-2.2
		c0,0,7.1-7.5,8.3-14.1s12.8-8,12.8-8s-9-3.3-18.8,5.6c0,0,2.3-19.1-14.6-24.7c0,0,12.3,15.6-2.2,25.7c0,0,2.2,7.9-2,14.4
		C155.5,133.2,155.4,136.9,167.7,127.5"/>
	<path class="st0" d="M164.8,148.4c0,0,6.5-5.5,14.3-9.5s-2.2-5.7-2.2-5.7s3.8-1.9,6.3-6.7c0,0,6.1,5,2.5,12.9c0,0,5.3-1.3,12.1-6.2
		C197.9,133.2,193.1,151.2,164.8,148.4"/>
</g>
</svg>
