<?xml version="1.0" encoding="utf-8"?>
<!-- Generator: Adobe Illustrator 23.0.1, SVG Export Plug-In . SVG Version: 6.00 Build 0)  -->
<svg version="1.1" id="Layer_1" xmlns="http://www.w3.org/2000/svg" xmlns:xlink="http://www.w3.org/1999/xlink" x="0px" y="0px"
	 viewBox="0 0 288 288" style="enable-background:new 0 0 288 288;" xml:space="preserve">
<style type="text/css">
	.st0{fill:#CF2621;}
</style>
<path class="st0" d="M158.9,101.8c10.3,25-14.9,29.4-14.9,29.4s-25.2-4.4-14.9-29.4c0,0-29.2,12-29.2,42.5
	c0,30.6,29.2,41.8,29.2,41.8S118.1,163,144,159c25.9,4,14.9,27.1,14.9,27.1s29.2-11.2,29.2-41.8
	C188.1,113.8,158.9,101.8,158.9,101.8 M168.2,171.7c0,0-5.5-20.6-24.2-20.6c-18.8,0-24.2,20.6-24.2,20.6s-11-11.9-11-27.7
	s11-25.3,11-25.3c2.8,18.5,24.2,22,24.2,22s21.4-3.5,24.2-22c0,0,11,9.6,11,25.3C179.2,159.8,168.2,171.7,168.2,171.7"/>
</svg>
