<?xml version="1.0" encoding="utf-8"?>
<!-- Generator: Adobe Illustrator 23.0.1, SVG Export Plug-In . SVG Version: 6.00 Build 0)  -->
<svg version="1.1" id="Layer_1" xmlns="http://www.w3.org/2000/svg" xmlns:xlink="http://www.w3.org/1999/xlink" x="0px" y="0px"
	 viewBox="0 0 288 288" style="enable-background:new 0 0 288 288;" xml:space="preserve">
<style type="text/css">
	.st0{fill:#FFF0DC;}
</style>
<g>
	<path class="st0" d="M148.3,123.9c0,5-4.1,9.1-9.1,9.1s-9.1-4.1-9.1-9.1c0-5,4.1-9.1,9.1-9.1S148.3,118.8,148.3,123.9"/>
	<path class="st0" d="M152.4,94.1L152.4,94.1c-0.8-0.6-1.8-1-2.9-1c-2.6,0-4.8,2.1-4.8,4.8c0,1.7,0.9,3.2,2.2,4
		c0.2,0.2,0.5,0.3,0.8,0.4c4.1,2.2,22.1,13.6,9.5,34.4c-14.7,15.7-28.5,5.7-31.7,3l0,0c-0.5-0.4-1-0.9-1.4-1.3
		c-0.7-0.4-1.6-0.7-2.5-0.7c-2.7,0-4.8,2.2-4.8,4.8c0,1.1,0.4,2.1,1,2.9c0.4,0.4,0.8,0.7,1.2,1.1c0.2,0.1,0.4,0.2,0.5,0.3
		c0,0,7.3,6.3,17.7,7.5c0.8,0.2,2.1,0.9,2.1,3.4v32c0,0.2,0,0.4,0,0.6c0,2.5,2.1,4.6,4.6,4.6s4.6-2.1,4.6-4.6c0-0.2,0-0.4,0-0.6
		v-33.1l0,0c0,0,0-0.1,0-0.3v-0.7c0.1-0.8,0.5-2.1,2.1-3c0.5-0.2,1.1-0.4,1.6-0.7l0,0c0.6-0.2,1.1-0.4,1.3-0.6
		c4.2-2.1,8.5-5.5,12.8-10.5C183.3,106.9,152.4,94.1,152.4,94.1"/>
</g>
</svg>
